<?xml version="1.0" encoding="UTF-8" standalone="no"?>
<!-- Created with Inkscape (http://www.inkscape.org/) -->

<svg
   xmlns:dc="http://purl.org/dc/elements/1.1/"
   xmlns:cc="http://creativecommons.org/ns#"
   xmlns:rdf="http://www.w3.org/1999/02/22-rdf-syntax-ns#"
   xmlns:svg="http://www.w3.org/2000/svg"
   xmlns="http://www.w3.org/2000/svg"
   xmlns:xlink="http://www.w3.org/1999/xlink"
   version="1.1"
   width="100"
   height="100"
   id="svg2">
  <defs
     id="defs4">
    <linearGradient
       id="highlightgradient">
      <stop
         id="stop3833"
         style="stop-color:#ffffff;stop-opacity:0.74374998"
         offset="0" />
      <stop
         id="stop3829"
         style="stop-color:#ffffff;stop-opacity:0"
         offset="1" />
    </linearGradient>
    <linearGradient
       id="shadowgradient">
      <stop
         id="stop3833-5"
         style="stop-color:#000000;stop-opacity:0.5"
         offset="0" />
      <stop
         id="stop3829-9"
         style="stop-color:#818080;stop-opacity:0"
         offset="1" />
    </linearGradient>
    <linearGradient
       x1="44.948269"
       y1="0"
       x2="54.103466"
       y2="46.797421"
       id="linearGradient4011"
       xlink:href="#highlightgradient"
       gradientUnits="userSpaceOnUse"
       gradientTransform="scale(1,0.54545455)" />
    <linearGradient
       x1="52.016712"
       y1="96"
       x2="42.867535"
       y2="41.837971"
       id="linearGradient4021"
       xlink:href="#shadowgradient"
       gradientUnits="userSpaceOnUse"
       gradientTransform="matrix(1,0,0,0.5,0,48)" />
    <filter
       x="-0.029999999"
       y="-0.12"
       width="1.0599999"
       height="1.24"
       color-interpolation-filters="sRGB"
       id="filter4055">
      <feGaussianBlur
         id="feGaussianBlur4057"
         stdDeviation="1.2" />
    </filter>
    <filter
       x="-0.029877551"
       y="-0.122"
       width="1.0597551"
       height="1.244"
       color-interpolation-filters="sRGB"
       id="filter4059">
      <feGaussianBlur
         id="feGaussianBlur4061"
         stdDeviation="1.22" />
    </filter>
  </defs>
  <metadata
     id="metadata7">
    <rdf:RDF>
      <cc:Work
         rdf:about="">
        <dc:format>image/svg+xml</dc:format>
        <dc:type
           rdf:resource="http://purl.org/dc/dcmitype/StillImage" />
        <dc:title></dc:title>
      </cc:Work>
    </rdf:RDF>
  </metadata>
  <g
     transform="translate(0,-952.3622)"
     id="layer1"
     style="display:inline">
    <path
       d="m 18,954.3622 c -8.9908981,0.0431 -16,7.05218 -16,16 0,0 0,41.4991 0,64 0,9.1201 7.0091019,16 16,16 l 16,0 0,-26 32,0 -0.08398,-23.9316 -31.91602,0.1679 0,-20.2363 32,0 0,-26 c 0,0 -40,0 -48,0 z"
       id="rect2993"
       style="fill:#ffc019;fill-opacity:1;stroke:none" />
    <path
       d="m 82,1050.3622 c 8.990898,0 16.086165,-6.966 16,-16 0,0 0,-41.4991 0,-64 0.07767,-9.01639 -7.067354,-16 -16,-16 l -16,0 0,26 -32,0 0,22 32,0 0,22 -32,0 0,26 c 0,0 32,0 48,0 z"
       id="rect2993-6"
       style="fill:#1872a2;fill-opacity:1;stroke:none" />
  </g>
  <g
     transform="translate(0,4)"
     id="g3997"
     style="display:inline">
    <path
       d="m 66,-2 0,26 -32,0 0,22 m 32,0 0,22 -32,0 0,26"
       id="path3999"
       style="fill:none;stroke:#000000;stroke-width:4;stroke-linecap:butt;stroke-linejoin:miter;stroke-miterlimit:4;stroke-opacity:1;stroke-dasharray:none" />
    <rect
       width="96"
       height="96"
       rx="16"
       ry="16"
       x="2"
       y="-2"
       id="rect4001"
       style="fill:none;stroke:#000000;stroke-width:4;stroke-linecap:round;stroke-linejoin:round;stroke-miterlimit:4;stroke-opacity:1;stroke-dasharray:none" />
  </g>
  <g
     transform="translate(0,4)"
     id="layer3"
     style="display:none">
    <path
       d="m 64,0 0,26 -32,0 0,22 32,0 0,22 -32,0 0,26"
       id="path3926"
       style="fill:none;stroke:#000000;stroke-width:4;stroke-linecap:butt;stroke-linejoin:miter;stroke-miterlimit:4;stroke-opacity:1;stroke-dasharray:none" />
    <rect
       width="96"
       height="96"
       rx="16"
       ry="16"
       x="0"
       y="0"
       id="rect3928"
       style="fill:none;stroke:#000000;stroke-width:4;stroke-linecap:round;stroke-linejoin:round;stroke-miterlimit:4;stroke-opacity:1;stroke-dasharray:none" />
  </g>
  <g
     transform="translate(0,4)"
     id="layer2"
     style="display:inline">
    <rect
       width="96"
       height="48.04369"
       rx="15.214664"
       ry="15.215644"
       x="2"
       y="-2"
       id="rect3823"
       style="fill:url(#linearGradient3930);fill-opacity:1;stroke:none" />
    <rect
       width="96"
       height="47.86721"
       rx="15.214664"
       ry="15.159752"
       x="2"
       y="-94"
       transform="scale(1,-1)"
       id="rect3823-8"
       style="fill:url(#linearGradient3904);fill-opacity:1;stroke:none" />
    <rect
       width="98"
       height="24"
       rx="15.214664"
       ry="8.2994423"
       x="0"
       y="0"
       transform="matrix(1.0296115,0,0,1.1963836,-0.901924,-6.713207)"
       id="rect4003"
       style="fill:url(#linearGradient4011);fill-opacity:1;stroke:none;filter:url(#filter4059)" />
    <rect
       width="96"
       height="24"
       rx="14.008356"
       ry="12"
       x="0"
       y="72"
       transform="matrix(0.9768331,0,0,0.91974646,3.1649641,6.098115)"
       id="rect4013"
       style="opacity:0.5674603;fill:url(#linearGradient4021);fill-opacity:1;stroke:none;filter:url(#filter4055)" />
  </g>
</svg>
